<?xml version="1.0" encoding="UTF-8"?>
<svg id="_딸기케이크" data-name="딸기케이크" xmlns="http://www.w3.org/2000/svg" xmlns:xlink="http://www.w3.org/1999/xlink" viewBox="0 0 48.29 58.1">
  <defs>
    <style>
      .cls-1 {
        fill: #d8e077;
      }

      .cls-1, .cls-2, .cls-3 {
        stroke-width: 0px;
      }

      .cls-2 {
        fill: url(#_무제_그라디언트_19);
      }

      .cls-4 {
        fill: none;
        stroke: #f9f6b3;
        stroke-linecap: round;
        stroke-linejoin: round;
      }

      .cls-3 {
        fill: #cfca1c;
      }
    </style>
    <radialGradient id="_무제_그라디언트_19" data-name="무제 그라디언트 19" cx="210.96" cy="-1661.03" fx="210.96" fy="-1661.03" r="34.82" gradientTransform="translate(1432.73 -906.78) rotate(62.73) scale(1 -1)" gradientUnits="userSpaceOnUse">
      <stop offset="0" stop-color="#ec7489"/>
      <stop offset="1" stop-color="#e73457"/>
    </radialGradient>
  </defs>
  <g id="s">
    <path class="cls-2" d="m9.39,48c-2.59-1.05-6.4-4.45-8.35-9.71-3.53-9.53,2.88-19.17,5.78-23.52,1.62-2.43,6.47-9.52,15.54-13.06C25.4.52,27.14-.13,29.45.02c7.95.51,15.53,11.91,18.38,28.07,3.8,28.64-16.92,28.65-38.45,19.91Z"/>
    <path class="cls-1" d="m26.97,54.53s3.3,5.28-5.78.38c0,0-2.64-1.63-3.03-1.53s-11.46,2.56-6.5-2.8c0,0,.81-.41.1-.84,0,0-4.44-1.78-2.05-5.35,0,0,2.69-2.62,7.1,1.43,0,0,.46.15.58-.3s2.26-5.9,6.93-3.71c4.67,2.19,1.63,6.53,1.63,6.53,0,0,.26.43.66.37s7.95-.08,5.69,5.06c0,0-1.53,1.68-4.96-.02,0,0-.8-.1-.38.78Z"/>
    <path class="cls-3" d="m20.54,50.01l-.78,4.15c-.05,1.61-.42,2.42-1.24,3.85-.02.07-.1.12-.17.08-.39-.26-.61-.73-.72-1.13-.4-1.17.06-2.28.6-3.28.59-1.32,1.31-2.57,2.13-3.76.06-.09.21-.03.18.08h0Z"/>
    <path class="cls-4" d="m37.87,41.16s.84-1.9.57-2.34"/>
    <path class="cls-4" d="m31.65,38.01s-.24-1.51.24-1.62"/>
    <path class="cls-4" d="m20.78,36.99s.21-1.61.19-2.03"/>
    <path class="cls-4" d="m11.26,39.1s-.2-1-.09-1.6"/>
    <path class="cls-4" d="m42.8,31.67s.34-1.87-.14-2.61"/>
    <path class="cls-4" d="m34.82,32.1l-.12-2.19"/>
    <path class="cls-4" d="m25.46,27.54c.06-.26-.27-.91.26-2.12"/>
    <path class="cls-4" d="m16.2,28.97s-.09-2.95.43-3.06"/>
    <path class="cls-4" d="m9.33,30.85s-.49-.9-.08-1.51"/>
    <path class="cls-4" d="m38.92,22.21s.07-2.7-.63-2.78"/>
    <path class="cls-4" d="m30.96,19.03s.24-1.93-.31-2.46"/>
    <path class="cls-4" d="m20.22,21.07s-.77-1.88-.12-2.32"/>
    <path class="cls-4" d="m12.6,17.55s-.07-1.23.49-1.94"/>
    <path class="cls-4" d="m34.92,11.85s-.16-1.23-.82-2.32"/>
    <path class="cls-4" d="m26.25,10.51s.29-2.04.56-2.39"/>
    <path class="cls-4" d="m19.67,10.87s.81-2.41,1.19-2.65"/>
  </g>
</svg>