<?xml version="1.0" encoding="UTF-8"?>
<svg id="_레이어_1" data-name="레이어 1" xmlns="http://www.w3.org/2000/svg" xmlns:xlink="http://www.w3.org/1999/xlink" viewBox="0 0 127.75 157.11">
  <defs>
    <style>
      .cls-1 {
        fill: #faf3bb;
      }

      .cls-1, .cls-2, .cls-3, .cls-4, .cls-5, .cls-6, .cls-7, .cls-8, .cls-9, .cls-10 {
        stroke-width: 0px;
      }

      .cls-2 {
        fill: url(#_무제_그라디언트_15-2);
      }

      .cls-3 {
        fill: url(#_무제_그라디언트_25);
      }

      .cls-4 {
        fill: url(#_무제_그라디언트_15);
      }

      .cls-5 {
        fill: #fff;
      }

      .cls-6 {
        fill: url(#_무제_그라디언트_19);
      }

      .cls-7 {
        fill: #f9d68e;
      }

      .cls-8 {
        fill: url(#_무제_그라디언트_15-3);
      }

      .cls-9 {
        fill: #fefdef;
      }

      .cls-10 {
        fill: #d13d74;
      }
    </style>
    <radialGradient id="_무제_그라디언트_25" data-name="무제 그라디언트 25" cx="58.79" cy="79.14" fx="58.79" fy="79.14" r="51.7" gradientUnits="userSpaceOnUse">
      <stop offset="0" stop-color="#fff"/>
      <stop offset="1" stop-color="#fbf6db"/>
    </radialGradient>
    <radialGradient id="_무제_그라디언트_15" data-name="무제 그라디언트 15" cx="-366.93" cy="-1002.32" fx="-366.93" fy="-1002.32" r="25.2" gradientTransform="translate(721.49 951.86) rotate(-16.16)" gradientUnits="userSpaceOnUse">
      <stop offset="0" stop-color="#f9d4d4"/>
      <stop offset="1" stop-color="#e73457"/>
    </radialGradient>
    <radialGradient id="_무제_그라디언트_15-2" data-name="무제 그라디언트 15" cx="-1086.68" cy="-1003.4" fx="-1086.68" fy="-1003.4" r="25.2" gradientTransform="translate(1228.46 804.92) rotate(-16.16) scale(.86 1)" xlink:href="#_무제_그라디언트_15"/>
    <radialGradient id="_무제_그라디언트_15-3" data-name="무제 그라디언트 15" cx="-1312.43" cy="-1003.79" fx="-1312.43" fy="-1003.79" gradientTransform="translate(1337.59 773.29) rotate(-16.16) scale(.82 1)" xlink:href="#_무제_그라디언트_15"/>
    <radialGradient id="_무제_그라디언트_19" data-name="무제 그라디언트 19" cx="58.44" cy="44.94" fx="58.44" fy="44.94" r="40.76" gradientTransform="translate(0 17.61)" gradientUnits="userSpaceOnUse">
      <stop offset="0" stop-color="#ec7489"/>
      <stop offset="1" stop-color="#e73457"/>
    </radialGradient>
  </defs>
  <path id="s_shadow" class="cls-10" d="m2.55,120.37c-1.91.65-3.04,2.54-2.33,3.88l15.61,29.56s.47.99,1.5.95,75.5,2.3,75.5,2.3c0,0,.63.19,1.58-.22s18.68-11,33.18-40.99c0,0,.3-.32.08-1.08s-19.71-29.56-19.71-29.56c0,0-.44-.45-1.04-.42L2.55,120.37Z"/>
  <g id="cake">
    <path class="cls-5" d="m4.1,123.72c-2,.52-3.87-1.35-3.87-3.86v-55.04s-.05-1.8.88-2.54S66.8.9,66.8.9c0,0,.47-.77,1.5-.89s21.66,1.66,48.48,34.17c0,0,.41.23.57,1.51s-3.63,58.18-3.63,58.18c0,0-.18.99-.73,1.4L4.1,123.72Z"/>
    <path class="cls-3" d="m2.45,62.96c-.9.11-1.63.35-2.21.62-.01.21-.01.35-.01.35v55.04c0,2.51,1.88,4.38,3.87,3.86l108.9-28.45c.54-.41.73-1.4.73-1.4,0,0,3.43-51.56,3.63-57.62C97.71,40.13,4.95,62.66,2.45,62.96Z"/>
    <path class="cls-7" d="m4.16,81.96v-15.32s.47-1.6,1.81-1.85,101.57-24.83,101.57-24.83c0,0,1.3-.57,2.13.32s4.15,3.7,1.76,14.43c0,0-.33,1-1.85,1.51S5.41,82.94,5.41,82.94c0,0-1.24.09-1.24-.98Z"/>
    <path class="cls-7" d="m5.59,119.82l.11,2.45c.02.53.43.91.85.8l102.65-26.81s.09-.03.13-.05c.23-.13.93-.63.84-1.99-.02-.37.17-1.53-.06-1.79-.06-.07-.13-.11-.13-.11s-.14-.08-.32-.04c-.27.06-72.97,18.67-102.81,26.31-.14.02-.32.06-.86.38-.26.15-.42.49-.41.84Z"/>
    <path class="cls-4" d="m106.16,80.8l-1.38-6.02s1.12-4.4.62-4.88-12.24-4.34-19.72,5.18c0,0-7.33,2.53-10.06,7.79,0,0-6.63,3.11-7.69,9.4l37.24-9.85c.71-.19,1.15-.91.98-1.63Z"/>
    <path class="cls-2" d="m68.22,90.67l-1.43-6.01s.8-4.31.36-4.8-10.8-4.76-16.92,4.37c0,0-6.27,2.22-8.43,7.32,0,0-5.64,2.82-6.31,9l31.95-8.32c.61-.16.96-.85.79-1.57Z"/>
    <path class="cls-8" d="m33.88,100.22l-1.44-6.01s.73-4.29.29-4.78-10.45-4.86-16.25,4.18c0,0-6.01,2.15-8.05,7.21,0,0-5.4,2.76-5.99,8.91l30.69-7.95c.59-.15.92-.84.74-1.56Z"/>
    <g>
      <path class="cls-9" d="m56.46,37.24s28.34,4.76,28.89-2.85c0,0,12.96,2.37,13.14-7.45,0,0,11.09-1.13,4.6-11.09,0,0,0-7.35-5.58-9.9,0,0-1.5-7.57-19.03-5.04,0,0-13.58,4.19-15.84,13.98,0,0,1.12,13.78-6.19,22.36Z"/>
      <path class="cls-1" d="m85.26,35.1c-2.88-2.3-6.08-4.01-9.61-4.98-3.73-.59-6.77-.88-10.49-2.42-.16-.06-.2-.29-.06-.4,3.45-2.78,8.11-2.28,11.68-.18,3.58,1.71,6.63,4.43,8.77,7.7.12.18-.12.41-.3.27h0Z"/>
      <path class="cls-1" d="m99.84,25.52c-4.36-3.01-9.42-4.81-14.58-5.77-3.63-.7-7.3-.31-10.97-.29-3.06-.11-5.99.16-9.15-.11-.12,0-.22-.11-.2-.24,2.52-2.06,5.85-3.14,9.05-3.65,3.22-.61,6.5.16,9.62.83,3.15.67,6.15,1.85,8.95,3.34,2.77,1.53,5.39,3.32,7.56,5.59.16.17-.08.45-.27.29h0Z"/>
      <path class="cls-1" d="m101.03,13.62c-4.23-3.52-9.75-5.11-15.14-5.23-4.03.18-7.93,1.19-11.97,1.43-1.38.19-2.79.37-4.34.34-.18,0-.28-.25-.14-.37,2.19-2.04,4.87-3.52,7.74-4.33,5.39-1.37,11.39-.26,16.43,1.9,2.94,1.47,5.74,3.4,7.72,6,.14.19-.13.44-.3.26h0Z"/>
      <path class="cls-1" d="m67.45,32.72c1.53-.14,9.37,3.43,12.54,5.6-8.37,1.6-23.49-.93-23.49-.93,7.31-8.58,6.19-22.36,6.19-22.36.13-.56.3-1.1.5-1.62.02.03,5.28,11.76.69,18.07,0,0,1.68,1.42,3.57,1.25Z"/>
    </g>
    <path class="cls-6" d="m4.75,75.72c8.61-3.55,17.37-6.43,26.2-9.09,4.4-1.39,8.85-2.54,13.28-3.81,4.45-1.18,8.91-2.29,13.37-3.43,4.49-1.02,8.96-2.1,13.46-3.07,4.51-.91,9-1.92,13.55-2.7,9.06-1.68,18.17-3.14,27.45-3.94h.03c.11-.01.21.07.22.18,0,.1-.06.19-.15.21l-53.6,13.22-53.69,12.83c-.11.03-.21-.04-.24-.15-.02-.1.03-.19.12-.23h.03Z"/>
  </g>
</svg>