<?xml version="1.0" encoding="UTF-8"?>
<svg id="_딸기케이크" data-name="딸기케이크" xmlns="http://www.w3.org/2000/svg" viewBox="0 0 33.43 27.31">
  <defs>
    <style>
      .cls-1 {
        fill: #fcf4d3;
      }

      .cls-1, .cls-2, .cls-3 {
        stroke-width: 0px;
      }

      .cls-4 {
        fill: none;
        stroke: #df7083;
        stroke-linecap: round;
        stroke-miterlimit: 10;
      }

      .cls-2 {
        fill: #f3a6bb;
      }

      .cls-3 {
        fill: #df7083;
      }
    </style>
  </defs>
  <g id="s_face">
    <rect class="cls-1" x="-.04" y=".64" width="33.51" height="26.09" rx="13.04" ry="13.04" transform="translate(2.36 -2.45) rotate(9.03)"/>
    <path class="cls-3" d="m11.51,22.57c-.16.19-.19.24-.1.13.11-.1.06-.07-.15.09.01-.05.43-.24.11-.09-.16.06-.15.07.01.01.17-.04.17-.04,0,0-.18.02-.18.03,0,.02l-.27-.04c.06.01.13.03.19.05.14.05.08.02-.18-.08.33.15-.23-.21-.03-.01.15.15-.13-.23.06.08.09.15.19.3.29.44.64.89,1.52,1.64,2.67,1.68,1.07.04,1.73-.56,2.51-1.18l-.16.13c.17-.09.17-.1.03-.03-.28.16.13-.08.18-.04-.29.03-.32.04-.1.03h.15c-.27-.04-.32-.05-.17-.01.07.01.14.03.21.06l-.21-.09c.15.1.17.1.04,0-.23-.1.06.06.13.13.2.21.37.45.59.64.76.68,1.78,1.01,2.78.74s1.66-.99,2.18-1.8c.56-.88.21-2.25-.72-2.74-.99-.52-2.14-.23-2.74.72-.3.47.22-.33-.09.12l.16-.11c-.22.12-.17.12.16,0,.3-.14.6-.11.9.09.2.17.24.21.13.11-.08-.09-.17-.17-.25-.26-.54-.61-1.11-1.07-1.88-1.36-1.54-.58-3.26-.07-4.41,1.06l-.12.11c.22-.23.48-.32.77-.28.28-.06.53.03.74.25l-.13-.12c.13.18.12.18,0-.01l-.1-.15c-.1-.15-.19-.29-.3-.44-.54-.73-1.2-1.32-2.1-1.56-1.68-.44-3.29.33-4.24,1.71-.6.86-.19,2.26.72,2.74,1.02.54,2.1.2,2.74-.72h0Z"/>
    <circle class="cls-3" cx="15.33" cy="19.02" r=".75"/>
    <polyline class="cls-4" points="6.68 11.91 9.91 15.89 5.69 18.14"/>
    <polyline class="cls-4" points="26.03 14.98 21.72 17.77 25.04 21.22"/>
    <path class="cls-2" d="m33.27,16.26h0c1.13-7.11-3.72-13.8-10.83-14.93L15.1.16C7.99-.97,1.3,3.88.17,11h0c-.1.65-.14,1.29-.15,1.93l9.79,1.56,1.33-3.92-.27,4.09,11.06,1.76,1.14-3.95-.18,4.11,9.91,1.58c.19-.61.36-1.23.46-1.88Z"/>
    <line class="cls-4" x1="21.72" y1="17.77" x2="26.64" y2="18.55"/>
    <line class="cls-4" x1="5.35" y1="15.17" x2="9.91" y2="15.89"/>
  </g>
</svg>