<?xml version="1.0" encoding="UTF-8"?>
<svg id="_딸기케이크" data-name="딸기케이크" xmlns="http://www.w3.org/2000/svg" viewBox="0 0 137.84 133.72">
  <defs>
    <style>
      .cls-1 {
        fill: #f8f6b5;
        stroke: #d2799e;
        stroke-miterlimit: 10;
        stroke-width: .75px;
      }
    </style>
  </defs>
  <path class="cls-1" d="m49.2,82.81c-.09.14-.21.25-.36.33-1.74.97-13.68,7.75-17.57,14.05-3.92,6.34-20.62,19.47-29.7,23.06-.77.31-.89,1.34-.21,1.82l.53.37c.28.2.63.24.95.13,3.72-1.33,26.74-10.05,33.44-24.01,0,0,.38-1.11,1.29-.88s2.18.55,2.26,1.51c.08.94-8.3,13.76-32.41,24.28-.73.32-.86,1.31-.22,1.79l.56.42c.29.22.66.27,1,.14,4.13-1.59,30.72-12.22,35.5-24.02.24-.6.94-.88,1.5-.54.16.1.33.22.52.39.16.14.28.32.33.53.33,1.51-1.01,7.85-32.77,25.75-.63.35-.72,1.22-.18,1.7.29.25.69.33,1.05.19,4.12-1.58,28.89-11.57,36.9-25.6.27-.47.83-.67,1.33-.46l1,.43c.49.21.75.76.58,1.28-.82,2.55-5.83,10.34-35.45,25.27-.74.37-.78,1.42-.06,1.83l.18.1c.27.15.58.19.87.09,4.31-1.53,38.17-13.97,41.25-28.81.24-.98.58-2.6.71-4.63.29-4.52-.68-7.91-.87-8.71-1.1-4.6,2.15-14.36,14.65-29.21,3.72-4.41,10.6-10.02,24.37-21.24,12-9.78,22.82-18.06,29.76-26.51.48-.58,5.29-6.47,6.77-8.28.36-.44.32-1.11-.13-1.45-.15-.11-.33-.22-.57-.31-.97-.37-10.17-2.28-12.38-2.73-.35-.07-.7.04-.95.29-1.08,1.08-44.16,47.36-53,56.32-5.33,5.41-12.78,13.71-20.46,25.3Z"/>
</svg>